<?xml version='1.0' encoding='iso-8859-1'?>
<!DOCTYPE svg PUBLIC '-//W3C//DTD SVG 1.1//EN' 'http://www.w3.org/Graphics/SVG/1.1/DTD/svg11.dtd'>
<svg version="1.1" xmlns="http://www.w3.org/2000/svg" viewBox="0 0 460 460" xmlns:xlink="http://www.w3.org/1999/xlink" enable-background="new 0 0 460 460">
  <g>
    <path d="m169.103,362.344c4.341-5.79 7.761-12.587 8.86-20.374h27.078c11.829,0 19.252,7.837 22.062,23.294 2.336,12.846 8.998,51.734 9.065,52.126 0.623,3.632 3.771,6.288 7.457,6.288h36.315c3.671,0 6.812-2.635 7.45-6.25l23.041-130.568c26.097-3.799 50.569-24.147 62.171-45.771 16.42-19.993 65.013-57.811 84.335-72.125 2.689-1.992 3.75-5.515 2.608-8.661-1.142-3.145-4.212-5.158-7.557-4.971 0,0-111.949,8.803-149.352,8.803-22.565,0-90.103-5.311-90.103-5.311 4.324-20.05 0.682-42.114-10.992-58.978l-41.721-60.265c-1.786-2.578-4.977-3.788-8.023-3.041-3.046,0.748-5.315,3.297-5.704,6.409l-5.391,43.131c-1.995,15.956-11.771,29.774-26.153,36.965l-69.87,34.935c-22.606,11.303-38.339,32.013-43.164,56.823-4.825,24.811 1.998,49.909 18.72,68.861l64.33,72.907c7.777,32.245 24.02,61.359 25.093,63.259 1.342,2.377 3.859,3.847 6.588,3.847h36.315c3.699,0 6.855-2.674 7.463-6.321l9.079-55.012zm17.783-163.316c13.141,10.725 26.504,22.198 36.299,31.867-17.847,7.029-61.383,24.047-109.572,41.946-9.898,3.676-17.655,9.422-23.181,17.148 0.048-3.732 0.438-7.493 1.219-11.249 3.343-16.072 12.936-29.576 27.013-38.021l68.222-41.691zm37.518,12.231c-15.083-13.843-33.425-28.613-47.235-39.362l74.626,4.399c-3.192,1.678-6.163,3.543-8.881,5.605-10.395,7.884-16.941,18.37-18.51,29.358zm15.259,10.225c10.009,0.454 29.319,2.8 40.795,13.723 5.452,5.188 8.458,11.609 9.136,19.547-0.301,0.688-0.5,1.539-0.5,2.604 0,4.882 6.359,10.94 10.149,14.117 0.545,0.457 1.181,0.743 1.841,0.867-27.876-0.496-57.316-28.497-61.421-50.858zm59.972,32.304c-0.916-10.351-5.025-19.052-12.251-25.916-14.054-13.351-36.254-16.039-47.574-16.5 3.162-12.673 18.598-30.488 62.025-30.488 40.844,0 58.565,16.746 62.019,30.489-11.326,0.463-33.508,3.155-47.555,16.499-7.224,6.863-11.334,15.567-12.25,25.916h-4.414zm-138.828-56.001l-44.157-58.876 4.664-2.332c18.917-9.458 31.777-27.634 34.4-48.62l2.936-23.483 30.45,43.985c9.267,13.385 12.481,29.522 9.048,45.437-0.294,1.361-0.648,2.696-1.031,4.019l-43.834-2.584c-3.35-0.196-6.415,1.824-7.557,4.972-1.142,3.145-0.081,6.668 2.609,8.66 6.355,4.708 15.879,11.959 26.382,20.282l-13.91,8.54zm-129.226,75.867c-13.59-15.402-19.135-35.799-15.213-55.961 3.921-20.162 16.707-36.993 35.078-46.179l56.034-28.017 44.631,59.509-41.233,24.74c-17.482,10.49-29.89,27.954-34.042,47.915-2.986,14.357-1.513,29.222 3.949,42.613-0.304,3.551-0.376,7.184-0.246,10.867l-48.958-55.487zm110.389,134.893v-24.026c2.426-1.279 5.616-3.102 9.096-5.454l-4.913,29.48h-4.183zm131.622,0h-3.955l2.429-64.78c0.157-4.176-3.101-7.688-7.276-7.844-4.188-0.139-7.688,3.102-7.844,7.277l-2.451,65.347h-4.493c-2-11.64-6.239-36.236-8.013-45.99-4.127-22.699-17.594-35.718-36.949-35.718h-34.322c-2.088,0-4.084,0.863-5.514,2.386-1.43,1.522-2.167,3.567-2.037,5.651 1.457,23.325-31.424,37.829-31.744,37.968-2.781,1.192-4.585,3.928-4.585,6.954v28.749h-6.059c-7.739-14.89-34.058-69.44-22.282-101.606 3.52-9.615 10.188-16.129 20.384-19.917 52.041-19.329 98.677-37.637 113.544-43.508 12.368,21.19 36.822,40.584 62.6,43.577l-21.433,121.454zm28.994-136.205c0.66-0.125 1.296-0.411 1.841-0.867 3.79-3.177 10.149-9.235 10.149-14.117 0-1.052-0.194-1.896-0.489-2.58 0.675-7.949 3.682-14.378 9.139-19.571 11.471-10.917 30.768-13.266 40.781-13.722-4.105,22.361-33.544,50.361-61.421,50.857zm76.822-59.74c-1.249-11.038-7.85-22.093-18.219-30.185-2.855-2.228-5.999-4.229-9.382-6.022l76.297-4.497c-14.257,11.096-33.348,26.479-48.696,40.704z"/>
    <path d="m274.603,249.674c1.594,0 3.147-0.646 4.277-1.776 1.13-1.129 1.776-2.682 1.776-4.276s-0.646-3.157-1.776-4.287c-1.129-1.12-2.683-1.765-4.277-1.765-1.594,0-3.157,0.645-4.287,1.765-1.12,1.13-1.765,2.693-1.765,4.287s0.645,3.147 1.765,4.276c1.13,1.129 2.694,1.776 4.287,1.776z"/>
    <path d="m329.075,237.569c-1.594,0-3.157,0.645-4.287,1.765-1.12,1.13-1.765,2.693-1.765,4.287s0.645,3.147 1.765,4.276c1.13,1.13 2.693,1.776 4.287,1.776 1.594,0 3.147-0.646 4.277-1.776 1.13-1.129 1.776-2.682 1.776-4.276s-0.646-3.157-1.776-4.287c-1.129-1.12-2.683-1.765-4.277-1.765z"/>
  </g>
</svg>
